<svg xmlns="http://www.w3.org/2000/svg" viewBox="0 0 64 64" role="img" aria-label="Casa dibujada a mano con un sol">
  <rect width="64" height="64" rx="14" fill="#344E41"/>

  <!-- Sol al fondo: círculo algo deforme y rayos de distinto largo -->
  <g stroke="#EDBA4A" stroke-width="3.2" stroke-linecap="round">
    <path d="M48.9 3.2 48.1 8.4"/>
    <path d="M59.8 7.3 56.2 11.6"/>
    <path d="M63.1 19.9 58.2 19.2"/>
    <path d="M37.9 8.2 41.3 12.5"/>
    <path d="M36.9 27.4 41.0 24.6"/>
  </g>
  <path d="M48.4 10.9 Q56.2 11.4 56.1 18.6 Q56.4 26.1 48.6 25.9 Q41.0 25.7 41.1 18.3 Q41.4 10.7 48.4 10.9 Z" fill="#EDBA4A"/>

  <!-- Tejado torcido, con la cumbrera descentrada hacia la izquierda -->
  <path d="M7.3 34.1 27.0 15.2 Q28.1 14.4 29.0 15.4 L47.9 32.3 Q48.9 33.5 47.3 33.6 L8.6 34.9 Q6.6 35.0 7.3 34.1 Z" fill="#C86F4B"/>

  <!-- Cuerpo: las paredes no llegan a ser paralelas -->
  <path d="M13.2 32.6 42.0 33.6 Q43.2 33.7 43.1 34.8 L42.6 52.4 Q42.6 53.4 41.6 53.2 L12.7 52.3 Q11.6 52.2 11.8 51.2 L12.4 33.6 Q12.4 32.6 13.2 32.6 Z" fill="#F3F0E5"/>

  <!-- Puerta ladeada y ventanuco -->
  <path d="M22.9 52.8 23.8 41.3 Q23.9 40.4 24.8 40.5 L30.9 40.9 Q31.8 41.0 31.7 41.9 L31.2 53.1 Z" fill="#344E41"/>
  <path d="M34.6 37.6 39.5 38.0 39.1 42.9 34.2 42.5 Z" fill="#344E41"/>
</svg>
